<?xml version="1.0" standalone="no"?><!-- Created with ZXing.Net (http://zxingnet.codeplex.com/) --><!DOCTYPE svg PUBLIC "-//W3C//DTD SVG 1.1//EN" "http://www.w3.org/Graphics/SVG/1.1/DTD/svg11.dtd"><svg xmlns="http://www.w3.org/2000/svg" version="1.2" baseProfile="tiny" shape-rendering="crispEdges" viewBox="0 0 200 200" viewport-fill="rgb(255,255,255)" viewport-fill-opacity="1" fill="rgb(0,0,0)" fill-opacity="1" style="background-color:rgb(255,255,255);background-color:rgba(255, 255, 255, 1);"><rect x="0" y="0" width="8" height="56"/><rect x="0" y="64" width="16" height="8"/><rect x="0" y="88" width="8" height="24"/><rect x="0" y="128" width="16" height="8"/><rect x="0" y="144" width="8" height="56"/><rect x="8" y="0" width="48" height="8"/><rect x="8" y="48" width="48" height="8"/><rect x="8" y="80" width="8" height="8"/><rect x="8" y="96" width="8" height="16"/><rect x="8" y="144" width="48" height="8"/><rect x="8" y="192" width="48" height="8"/><rect x="16" y="16" width="24" height="24"/><rect x="16" y="72" width="8" height="8"/><rect x="16" y="96" width="8" height="8"/><rect x="16" y="120" width="8" height="8"/><rect x="16" y="160" width="24" height="24"/><rect x="24" y="88" width="8" height="8"/><rect x="24" y="128" width="48" height="8"/><rect x="32" y="64" width="8" height="16"/><rect x="32" y="104" width="16" height="8"/><rect x="40" y="64" width="16" height="8"/><rect x="40" y="88" width="8" height="8"/><rect x="40" y="120" width="8" height="16"/><rect x="48" y="8" width="8" height="48"/><rect x="48" y="80" width="8" height="8"/><rect x="48" y="96" width="8" height="8"/><rect x="48" y="112" width="8" height="8"/><rect x="48" y="152" width="8" height="48"/><rect x="56" y="72" width="16" height="8"/><rect x="64" y="0" width="8" height="32"/><rect x="64" y="40" width="8" height="16"/><rect x="64" y="80" width="24" height="8"/><rect x="64" y="96" width="8" height="8"/><rect x="64" y="136" width="32" height="8"/><rect x="64" y="152" width="8" height="16"/><rect x="64" y="184" width="8" height="16"/><rect x="72" y="16" width="8" height="32"/><rect x="72" y="88" width="8" height="8"/><rect x="72" y="120" width="16" height="8"/><rect x="72" y="144" width="48" height="8"/><rect x="72" y="168" width="8" height="8"/><rect x="72" y="192" width="32" height="8"/><rect x="80" y="24" width="8" height="48"/><rect x="80" y="104" width="8" height="64"/><rect x="80" y="176" width="16" height="24"/><rect x="88" y="8" width="16" height="8"/><rect x="88" y="56" width="8" height="8"/><rect x="88" y="96" width="16" height="8"/><rect x="88" y="112" width="16" height="8"/><rect x="88" y="128" width="8" height="72"/><rect x="96" y="16" width="8" height="24"/><rect x="96" y="48" width="8" height="8"/><rect x="96" y="64" width="8" height="8"/><rect x="96" y="88" width="8" height="48"/><rect x="96" y="184" width="8" height="16"/><rect x="104" y="24" width="8" height="8"/><rect x="104" y="104" width="8" height="8"/><rect x="104" y="168" width="16" height="16"/><rect x="112" y="0" width="8" height="24"/><rect x="112" y="32" width="24" height="8"/><rect x="112" y="48" width="8" height="8"/><rect x="112" y="72" width="24" height="16"/><rect x="112" y="112" width="8" height="48"/><rect x="112" y="184" width="16" height="8"/><rect x="120" y="0" width="16" height="8"/><rect x="120" y="56" width="8" height="72"/><rect x="120" y="136" width="16" height="8"/><rect x="120" y="192" width="8" height="8"/><rect x="128" y="24" width="8" height="40"/><rect x="128" y="104" width="8" height="8"/><rect x="128" y="128" width="8" height="40"/><rect x="128" y="176" width="32" height="8"/><rect x="136" y="72" width="8" height="8"/><rect x="136" y="120" width="24" height="16"/><rect x="136" y="160" width="16" height="24"/><rect x="136" y="192" width="16" height="8"/><rect x="144" y="0" width="8" height="56"/><rect x="144" y="88" width="8" height="16"/><rect x="144" y="112" width="16" height="24"/><rect x="144" y="144" width="8" height="8"/><rect x="152" y="0" width="48" height="8"/><rect x="152" y="48" width="48" height="8"/><rect x="152" y="64" width="8" height="8"/><rect x="152" y="80" width="8" height="16"/><rect x="152" y="160" width="16" height="8"/><rect x="152" y="184" width="40" height="8"/><rect x="160" y="16" width="24" height="24"/><rect x="160" y="72" width="16" height="16"/><rect x="160" y="104" width="8" height="16"/><rect x="160" y="128" width="8" height="40"/><rect x="168" y="64" width="8" height="24"/><rect x="168" y="96" width="32" height="8"/><rect x="168" y="112" width="16" height="24"/><rect x="168" y="144" width="8" height="16"/><rect x="168" y="168" width="32" height="8"/><rect x="176" y="64" width="24" height="8"/><rect x="176" y="80" width="8" height="24"/><rect x="176" y="136" width="8" height="8"/><rect x="176" y="152" width="8" height="24"/><rect x="176" y="192" width="24" height="8"/><rect x="184" y="72" width="8" height="8"/><rect x="184" y="88" width="8" height="24"/><rect x="184" y="120" width="8" height="8"/><rect x="184" y="152" width="16" height="8"/><rect x="184" y="176" width="8" height="24"/><rect x="192" y="8" width="8" height="48"/></svg>