<?xml version="1.0" encoding="UTF-8" standalone="no"?>
<svg
   xmlns:dc="http://purl.org/dc/elements/1.1/"
   xmlns:cc="http://creativecommons.org/ns#"
   xmlns:rdf="http://www.w3.org/1999/02/22-rdf-syntax-ns#"
   xmlns:svg="http://www.w3.org/2000/svg"
   xmlns="http://www.w3.org/2000/svg"
   width="195.70303mm"
   height="36.677601mm"
   viewBox="0 0 195.70303 36.677601"
   version="1.1"
   id="svg1016">
  <path
     id="path40"
     style="font-style:normal;font-variant:normal;font-weight:900;font-stretch:normal;font-size:50.8px;line-height:1.25;font-family:'Myriad Pro';-inkscape-font-specification:'Myriad Pro, Heavy';font-variant-ligatures:normal;font-variant-caps:normal;font-variant-numeric:normal;font-variant-east-asian:normal;fill:#2e9f40;fill-opacity:1;stroke:none;stroke-width:0.264583"
     d="m 91.140756,36.1188 h 9.194804 v -14.732 c 0,-0.4064 0.0508,-1.0668 0.2032,-1.4732 0.4572,-0.9652 1.27,-1.9812 2.9972,-1.9812 2.286,0 3.2512,1.778 3.2512,4.7244 v 13.462 h 9.1948 v -14.478 c 0,-7.0612 -3.1496,-11.0744 -8.7884,-11.0744 -1.3208,0 -2.6924,0.3048 -3.81,0.8636 -1.1176,0.5588 -2.1336,1.3208 -2.9464,2.3368 h -0.1016 V 0 H 91.140756 Z M 72.811479,6.4516 v 4.6736 h -3.0988 v 6.7056 h 3.0988 v 8.7376 c 0,3.81 0.8128,6.2484 2.3368,7.7724 1.3208,1.3208 3.556,2.286 6.2484,2.286 2.3368,0 4.3688,-0.3048 5.4356,-0.7112 V 28.956 c -0.762,0.2032 -1.1176,0.2032 -2.1844,0.2032 -2.2352,0 -2.8956,-1.2192 -2.8956,-4.1656 v -7.1628 h 5.1816 v -6.7056 h -5.1816 V 4.0132 Z M 66.559906,21.59 c 0,-6.2484 -2.9972,-11.0236 -11.582399,-11.0236 -5.1816,0 -8.7884,1.4224 -10.3632,2.286 l 1.5748,5.7404 c 1.6764,-0.9144 4.4196,-1.8288 7.0612,-1.8288 3.3528,0 4.1148,1.1176 4.1148,2.1336 v 0.2032 c -8.4836,0 -14.5288,2.9972 -14.5288,9.7028 0,4.1656 3.1496,7.874 8.2804,7.874 2.6924,0 5.1816,-0.762 6.908799,-2.7432 h 0.2032 l 0.4572,2.1844 h 8.2804 c -0.254,-1.27 -0.4064,-3.6068 -0.4064,-6.096 z m -8.89,5.1308 c 0,0.4572 0,0.9144 -0.101599,1.3208 -0.4572,1.3716 -1.8288,2.286 -3.1496,2.286 -1.5748,0 -2.5908,-0.8128 -2.5908,-2.3876 0,-2.2352 2.0828,-3.2512 5.841999,-3.2512 z m -27.545507,9.398 h 8.89 l -1.7272,-34.2392 h -12.0396 l -2.5908,9.144 c -1.016,3.6068 -2.1336,8.4328 -3.0988,12.5984 h -0.1524 c -0.7112,-4.1656 -1.7272,-8.7376 -2.6924,-12.4968 l -2.2352,-9.2456 H 2.1336 L 0,36.1188 h 8.4328003 l 0.5588,-12.2936 c 0.1524,-3.8608 0.3048,-8.9408 0.508,-13.7668 h 0.1016 C 10.414,14.732 11.43,19.812 12.3444,23.4696 l 2.844799,11.938 h 7.1628 l 3.4036,-11.938 c 1.1176,-3.7592 2.54,-8.89 3.6068,-13.4112 h 0.1524 c 0,5.334 0.0508,9.906 0.2032,13.7668 z" />
  <path
     id="path46"
     style="font-style:normal;font-variant:normal;font-weight:900;font-stretch:normal;font-size:50.8px;line-height:1.25;font-family:'Myriad Pro';-inkscape-font-specification:'Myriad Pro, Heavy';font-variant-ligatures:normal;font-variant-caps:normal;font-variant-numeric:normal;font-variant-east-asian:normal;fill:#231f20;fill-opacity:1;stroke:none;stroke-width:0.264583"
     d="m 168.27104,11.1252 8.1788,12.2428 -8.2804,12.7508 h 10.0076 l 1.8288,-4.0132 c 0.4572,-1.1176 1.016,-2.286 1.5748,-3.6068 h 0.1524 c 0.4572,1.27 1.016,2.4384 1.6256,3.6068 l 1.9812,4.0132 h 10.3632 l -8.128,-13.1572 8.0772,-11.8364 h -9.906 l -1.6764,3.556 c -0.5588,1.1684 -1.0668,2.3876 -1.6256,3.7084 h -0.1524 c -0.5588,-1.1176 -1.1684,-2.3368 -1.8288,-3.556 l -1.9812,-3.7084 z M 165.28256,21.59 c 0,-6.2484 -2.9972,-11.0236 -11.5824,-11.0236 -5.1816,0 -8.7884,1.4224 -10.3632,2.286 l 1.5748,5.7404 c 1.6764,-0.9144 4.4196,-1.8288 7.0612,-1.8288 3.3528,0 4.1148,1.1176 4.1148,2.1336 v 0.2032 c -8.4836,0 -14.5288,2.9972 -14.5288,9.7028 0,4.1656 3.1496,7.874 8.2804,7.874 2.6924,0 5.1816,-0.762 6.9088,-2.7432 h 0.2032 l 0.4572,2.1844 h 8.2804 c -0.254,-1.27 -0.4064,-3.6068 -0.4064,-6.096 z m -8.89,5.1308 c 0,0.4572 0,0.9144 -0.1016,1.3208 -0.4572,1.3716 -1.8288,2.286 -3.1496,2.286 -1.5748,0 -2.5908,-0.8128 -2.5908,-2.3876 0,-2.2352 2.0828,-3.2512 5.842,-3.2512 z m -27.88284,-3.7084 c 0,4.7244 -1.9304,6.0452 -4.8768,6.0452 -1.4732,0 -2.8956,-0.254 -4.0132,-0.5588 l -0.9652,7.366 c 1.6764,0.5588 4.1656,0.8128 6.0452,0.8128 8.2296,0 13.0048,-3.7084 13.0048,-13.6652 V 1.8796 h -9.1948 z" />
</svg>
